<?xml version="1.0" standalone="no"?>
<!DOCTYPE svg PUBLIC "-//W3C//DTD SVG 20010904//EN"
 "http://www.w3.org/TR/2001/REC-SVG-20010904/DTD/svg10.dtd">
<svg version="1.0" xmlns="http://www.w3.org/2000/svg"
 width="1000.000000pt" height="1000.000000pt" viewBox="0 0 1000.000000 1000.000000"
 preserveAspectRatio="xMidYMid meet">

<g transform="translate(0.000000,1000.000000) scale(0.100000,-0.100000)"
fill="#ffffff" stroke="None">
<path fill="#ffffff" d="M4810 9060 c-898 -85 -1760 -486 -2424 -1130 -550 -533 -959 -1224
-1142 -1929 -81 -312 -114 -569 -121 -936 -8 -378 17 -663 83 -980 31 -147 91
-345 109 -364 11 -12 174 -15 1012 -17 l998 -4 185 -29 c238 -38 337 -44 485
-31 240 21 421 82 614 207 46 30 86 51 90 48 3 -4 27 -97 52 -208 l46 -202
-1621 -5 c-924 -3 -1630 -9 -1641 -14 -39 -17 -85 -57 -100 -86 -19 -36 -19
-110 -1 -153 17 -42 66 -83 114 -97 50 -13 572 -13 647 1 33 6 107 33 165 59
58 26 132 53 165 59 40 8 384 11 1080 11 1135 0 1089 3 1165 -66 61 -55 213
-286 179 -271 -8 3 -56 24 -108 47 -154 67 -267 94 -396 94 -141 0 -177 -13
-196 -75 -13 -42 -16 -44 -69 -56 -36 -8 -62 -20 -75 -37 -27 -33 -111 -56
-206 -56 -49 0 -80 -4 -87 -12 -5 -7 -130 -404 -277 -882 -197 -640 -265 -874
-258 -885 9 -14 103 -17 855 -21 l845 -5 36 -28 c114 -87 205 -88 305 -3 l44
36 827 0 c863 0 851 -1 851 42 0 20 -525 1715 -538 1738 -7 11 -34 17 -93 21
-112 8 -153 21 -188 57 -17 19 -46 35 -74 43 -55 13 -68 27 -76 77 -5 32 -13
40 -51 59 -63 31 -161 43 -257 32 -98 -12 -265 -68 -362 -120 -40 -22 -76 -37
-79 -35 -9 10 66 151 102 193 22 25 64 56 104 75 l67 33 1049 3 c1187 3 1101
8 1271 -80 l100 -51 345 -1 c319 -1 348 1 383 18 58 29 92 86 92 156 0 72 -31
121 -95 153 l-45 22 -1612 3 c-887 1 -1613 3 -1613 5 0 13 80 420 83 424 3 2
36 -16 73 -40 212 -137 417 -204 688 -228 145 -12 299 -2 561 36 170 25 172
25 1000 26 457 1 881 4 944 8 108 6 115 7 134 32 23 32 88 273 121 454 98 530
93 1121 -14 1627 -73 343 -180 640 -357 990 -270 535 -642 992 -1116 1373
-608 489 -1246 762 -2007 861 -146 19 -624 27 -770 14z m565 -570 c634 -57
1203 -339 1710 -845 315 -313 512 -631 645 -1035 27 -80 60 -201 74 -270 32
-157 54 -394 40 -418 -8 -12 -58 -27 -163 -51 -84 -18 -155 -31 -158 -28 -3 3
2 84 11 179 27 288 28 285 -81 274 -237 -24 -501 -98 -679 -189 -65 -34 -107
-50 -110 -43 -2 6 -24 115 -49 241 -25 127 -48 238 -51 247 -8 27 -44 31 -115
13 -304 -77 -538 -204 -738 -403 -57 -57 -105 -101 -107 -99 -11 11 -35 689
-39 1112 -3 264 -7 513 -9 552 -20 349 -497 500 -746 237 -76 -80 -109 -158
-120 -285 -5 -57 -9 -445 -10 -861 0 -638 -2 -758 -14 -758 -7 0 -51 39 -97
86 -195 200 -434 337 -717 409 -57 15 -114 24 -127 21 -31 -8 -37 -28 -81
-286 -20 -118 -39 -217 -40 -219 -2 -2 -66 24 -142 57 -157 70 -295 109 -528
148 -175 29 -210 28 -220 -11 -3 -14 2 -113 11 -220 10 -108 16 -197 14 -200
-3 -2 -70 10 -149 26 -182 38 -184 40 -175 154 34 440 166 820 414 1191 285
428 616 737 1021 953 446 237 1050 364 1525 321z m-194 -620 c49 -14 123 -81
143 -130 9 -22 19 -65 22 -95 l7 -55 -227 0 -226 0 0 38 c0 103 56 193 144
233 46 21 85 23 137 9z m160 -517 c9 -9 10 -30 3 -80 -8 -62 -5 -139 9 -196
13 -50 5 -52 -244 -55 -220 -3 -231 -2 -225 15 39 98 42 195 10 285 -8 22 -14
42 -14 45 0 2 101 3 225 1 157 -2 228 -7 236 -15z m22 -600 c9 -94 12 -594 10
-1598 l-1 -1020 -234 0 -233 0 -8 65 c-14 118 -20 1905 -8 2250 6 176 14 327
17 335 5 13 39 15 229 15 l223 0 5 -47z m-1327 -508 c135 -64 218 -118 303
-199 105 -100 282 -307 305 -355 20 -45 21 -60 24 -620 1 -335 -1 -578 -6
-583 -13 -13 -181 45 -274 94 -305 163 -537 473 -593 795 -17 96 -19 318 -5
433 5 41 28 171 51 288 40 202 43 212 63 206 12 -3 71 -30 132 -59z m2378
-115 c66 -325 84 -504 67 -668 -39 -368 -212 -643 -523 -825 -68 -40 -343
-167 -361 -167 -4 0 -6 260 -5 578 l3 577 32 69 c81 169 313 402 512 514 55
31 232 104 237 99 1 -1 18 -81 38 -177z m-3323 -110 c159 -34 322 -110 417
-195 l44 -40 -1 -196 c-2 -238 6 -293 70 -482 28 -82 49 -151 47 -153 -3 -2
-90 4 -195 14 -140 14 -198 23 -218 36 -65 43 -168 222 -198 346 -16 64 -117
657 -117 685 0 16 5 16 151 -15z m4239 17 c0 -21 -87 -512 -106 -597 -35 -154
-50 -192 -134 -325 -58 -93 -78 -116 -103 -124 -41 -12 -375 -46 -383 -38 -3
3 13 59 35 124 58 168 63 201 70 465 6 218 8 239 27 265 56 76 340 203 509
226 41 5 85 8 85 4z m-4856 -368 c119 -24 245 -71 273 -102 14 -14 27 -52 37
-107 28 -149 98 -328 174 -442 15 -23 21 -42 16 -47 -5 -5 -106 -46 -224 -91
-236 -90 -262 -102 -303 -136 -58 -48 -113 -21 -247 122 -85 90 -143 179 -181
279 -67 173 -139 282 -241 362 -33 26 -74 60 -91 74 l-30 25 84 22 c292 76
500 87 733 41z m5889 0 c102 -20 202 -54 212 -70 4 -5 -9 -21 -27 -36 -144
-119 -206 -201 -285 -380 -28 -61 -76 -151 -109 -200 -65 -98 -193 -232 -242
-252 -30 -13 -36 -11 -129 41 -139 78 -221 112 -371 154 -73 20 -132 40 -132
44 0 4 24 49 54 100 65 109 105 214 139 369 14 62 34 122 43 132 18 20 187 78
287 99 164 34 392 33 560 -1z m-4874 -929 c185 -38 329 -98 681 -287 220 -118
324 -167 435 -203 39 -12 72 -24 74 -26 10 -9 -98 -127 -156 -171 -188 -142
-389 -203 -671 -203 -397 0 -742 105 -1022 311 -211 155 -287 196 -410 220
-36 7 -69 16 -74 20 -15 13 11 36 114 104 225 148 433 227 680 259 69 8 251
-4 349 -24z m3783 -1 c111 -22 207 -55 324 -110 129 -61 334 -202 334 -230 0
-5 -13 -9 -28 -9 -87 0 -201 -55 -422 -205 -361 -245 -622 -335 -970 -336
-241 -1 -453 44 -639 133 -88 42 -116 62 -187 132 -46 46 -84 88 -84 93 0 6
80 48 178 93 97 45 263 128 367 185 348 189 533 254 800 279 72 6 228 -5 327
-25z m-1922 -831 c0 -15 -209 -811 -214 -815 -4 -4 -10 -2 -15 3 -4 5 -52 182
-105 394 -54 212 -99 393 -102 403 -5 16 10 17 215 17 122 0 221 -1 221 -2z
m599 -847 c40 -11 75 -22 78 -25 6 -6 194 -912 264 -1275 35 -178 40 -214 28
-222 -8 -5 -47 -9 -87 -9 -40 0 -139 -7 -220 -15 -354 -37 -648 -127 -789
-241 -23 -19 -44 -34 -47 -34 -3 0 -6 52 -6 115 l0 115 -25 0 -25 0 0 -110 c0
-60 -2 -110 -5 -110 -2 0 -38 22 -80 49 -166 108 -478 197 -890 251 -88 12
-161 23 -163 25 -2 1 63 308 144 681 81 374 149 691 152 706 6 40 33 59 99 68
133 19 331 -32 558 -143 161 -80 178 -96 183 -182 4 -60 6 -65 28 -65 22 0 23
3 26 82 l3 82 50 38 c77 58 200 124 314 169 181 71 283 83 410 50z m-1949
-252 c0 -10 -381 -1392 -424 -1539 l-13 -45 251 3 c272 4 528 -8 841 -39 484
-47 498 -62 53 -54 -178 3 -529 8 -782 11 l-458 6 5 27 c6 26 444 1503 473
1594 12 34 21 47 35 47 10 0 19 -5 19 -11z m2376 -34 c80 -271 478 -1603 481
-1611 3 -9 -125 -13 -474 -18 -263 -3 -630 -8 -815 -12 -194 -3 -338 -2 -338
4 0 39 898 91 1319 76 187 -7 193 -6 188 12 -3 10 -94 363 -201 784 -108 421
-199 776 -203 789 -5 19 -2 22 13 19 11 -2 23 -18 30 -43z"/>
<path d="M5107 7283 c18 -2 50 -2 70 0 21 2 7 4 -32 4 -38 0 -55 -2 -38 -4z"/>
<path d="M5216 3761 c-4 -5 -9 -36 -12 -68 -5 -46 -3 -61 9 -72 14 -11 18 -8
32 24 18 45 19 66 3 100 -12 26 -23 32 -32 16z"/>
<path d="M5008 3738 c-6 -18 23 -128 33 -128 10 0 10 59 0 104 -6 31 -26 45
-33 24z"/>
<path d="M4316 2667 c-16 -12 -17 -19 -6 -68 13 -60 9 -788 -5 -848 -5 -24 -4
-36 6 -42 22 -14 335 -11 383 3 56 17 128 90 149 153 24 70 23 187 -2 209 -11
10 -30 16 -43 14 -21 -3 -24 -10 -31 -81 -9 -94 -26 -139 -61 -162 -21 -14
-38 -15 -113 -8 l-88 8 -3 411 -2 412 -23 6 c-41 11 -143 6 -161 -7z"/>
<path d="M4965 2671 c-63 -26 -81 -115 -31 -158 29 -25 83 -31 118 -12 11 6
26 26 34 46 34 80 -40 157 -121 124z"/>
<path d="M5818 2665 c-35 -19 -48 -44 -48 -90 0 -82 100 -116 161 -56 77 78
-17 200 -113 146z"/>
<path d="M4960 2423 c-14 -3 -28 -10 -32 -17 -4 -6 -8 -158 -8 -338 0 -315 1
-329 20 -348 15 -15 33 -20 78 -20 32 0 66 6 76 13 16 12 17 19 7 72 -7 39 -9
151 -5 329 5 221 4 274 -7 288 -15 18 -87 29 -129 21z"/>
<path d="M5222 2420 l-24 -10 4 -388 c3 -346 5 -391 20 -414 33 -50 110 -45
145 9 15 22 19 53 21 185 l4 158 57 0 c144 0 235 79 256 222 13 90 -34 187
-112 227 -27 14 -116 14 -166 0 -28 -7 -42 -7 -52 1 -19 16 -124 22 -153 10z
m253 -84 c55 -23 81 -96 63 -180 -13 -60 -84 -139 -121 -134 -21 3 -22 7 -25
145 -2 132 -1 144 18 163 24 24 22 24 65 6z"/>
<path d="M5792 2408 c-14 -14 -17 -664 -3 -687 11 -17 156 -20 173 -3 8 8 8
23 -1 56 -7 28 -11 151 -11 333 0 212 -3 292 -12 301 -7 7 -39 12 -73 12 -34
0 -66 -5 -73 -12z"/>
<path d="M1070 2889 c-40 -16 -60 -49 -60 -101 0 -40 4 -50 31 -72 l31 -26
895 2 895 3 24 28 c41 48 28 123 -28 157 -32 20 -51 20 -898 19 -540 0 -874
-4 -890 -10z"/>
<path d="M7440 2893 c-39 -12 -63 -30 -76 -55 -18 -34 -18 -62 1 -97 29 -58 4
-56 942 -56 858 0 862 0 890 21 67 50 69 127 4 171 l-34 23 -856 -1 c-471 0
-863 -3 -871 -6z"/>
<path d="M1962 2331 c-79 -6 -86 -8 -113 -39 -37 -41 -38 -80 -3 -113 l26 -24
441 3 c433 3 442 4 465 25 32 30 31 95 -4 128 l-26 24 -351 1 c-194 1 -390 -2
-435 -5z"/>
<path d="M7526 2331 c-74 -11 -108 -71 -75 -133 24 -45 54 -48 456 -47 208 0
399 4 426 8 83 14 120 73 81 130 -35 49 -55 51 -461 50 -208 -1 -400 -5 -427
-8z"/>
<path d="M2798 1813 l-187 -3 -20 -27 c-27 -34 -26 -59 4 -88 l24 -25 244 0
c232 0 246 1 271 21 31 24 35 66 8 99 -21 26 -53 29 -344 23z"/>
<path d="M7275 1813 c-151 -4 -161 -6 -174 -43 -12 -37 -1 -74 28 -89 12 -7
109 -11 258 -11 273 0 283 2 283 69 0 64 -20 73 -157 75 -65 0 -172 0 -238 -1z"/>
</g>
</svg>
